<svg version="1.1" id="Layer_1" xmlns="http://www.w3.org/2000/svg" xmlns:xlink="http://www.w3.org/1999/xlink" x="0px" y="0px"
	 width="100%" viewBox="0 0 3020 3020" enable-background="new 0 0 3020 3020" xml:space="preserve">
<path fill="#FFFFFF" opacity="1.000000" stroke="none" 
	d="
M1668.000000,3022.000000 
	C1112.000122,3022.000000 557.000183,3022.000000 2.000223,3022.000000 
	C2.000149,2015.333618 2.000149,1008.667236 2.000074,2.000629 
	C1008.666199,2.000419 2015.332397,2.000419 3021.999023,2.000210 
	C3021.999268,1008.666016 3021.999268,2015.332031 3021.999512,3021.999023 
	C2571.000000,3022.000000 2120.000000,3022.000000 1668.000000,3022.000000 
M985.764282,1529.000000 
	C985.764282,1569.158081 985.764282,1609.316162 985.764282,1649.397949 
	C987.977722,1649.765137 988.927734,1650.061279 989.877441,1650.060303 
	C1041.165283,1650.010010 1092.455322,1650.175659 1143.739868,1649.725830 
	C1160.720093,1649.576904 1177.595459,1647.296509 1193.863159,1641.845581 
	C1214.680176,1634.870239 1229.902466,1621.572388 1237.161987,1600.782471 
	C1241.292358,1588.953247 1244.080078,1576.472534 1245.894897,1564.054688 
	C1249.859131,1536.930786 1249.218506,1509.528931 1247.480103,1482.293579 
	C1246.533813,1467.466919 1243.835205,1452.556885 1240.137451,1438.143677 
	C1233.413696,1411.935791 1216.520996,1394.921997 1190.242065,1387.317383 
	C1173.122559,1382.363525 1155.600708,1380.468750 1137.954102,1380.339844 
	C1089.332397,1379.984619 1040.707031,1380.124512 992.083069,1380.106812 
	C990.191223,1380.106201 988.299316,1380.498901 985.764221,1380.779541 
	C985.764221,1429.863403 985.764221,1478.431641 985.764282,1529.000000 
M439.376617,1471.940552 
	C440.735046,1455.153442 438.696808,1438.695679 433.983124,1422.613770 
	C428.239136,1403.016846 415.453308,1389.595703 396.180756,1383.164551 
	C386.150177,1379.817261 375.635406,1377.432129 365.149780,1376.028931 
	C333.985443,1371.858276 302.634094,1372.752563 271.360992,1374.549561 
	C255.427383,1375.465088 239.597641,1377.810181 224.545288,1383.835571 
	C207.602341,1390.617676 196.495026,1402.481567 191.898987,1420.227783 
	C187.499451,1437.215454 186.954315,1454.433350 189.127029,1471.776001 
	C191.696289,1492.283813 202.707169,1506.977051 220.971603,1515.962646 
	C230.477966,1520.639648 240.359268,1525.046753 250.556976,1527.728760 
	C275.955292,1534.408813 301.712494,1539.716309 327.155548,1546.238281 
	C336.731598,1548.692993 346.271637,1552.137695 355.040894,1556.658081 
	C364.310608,1561.436523 366.608643,1569.936279 364.094238,1581.854492 
	C362.523376,1589.300415 357.943390,1592.469360 346.729858,1593.836548 
	C345.408234,1593.997803 344.074799,1594.125000 342.744904,1594.146484 
	C327.762146,1594.388306 312.777008,1594.845459 297.796906,1594.720337 
	C291.184265,1594.665039 284.462524,1593.971680 277.999725,1592.588989 
	C265.407867,1589.895264 261.270905,1584.886841 259.871643,1572.245117 
	C259.367126,1567.687256 258.959961,1563.118652 258.501984,1558.490601 
	C233.213257,1558.490601 208.662628,1558.490601 183.356750,1558.490601 
	C183.000824,1575.228882 183.978302,1591.332886 189.247726,1606.967896 
	C194.895996,1623.726929 205.768387,1635.874512 222.320038,1642.092651 
	C231.594635,1645.576904 241.296661,1648.507935 251.063919,1649.994263 
	C291.147430,1656.094238 331.442017,1655.328491 371.639374,1651.371826 
	C383.115967,1650.242188 394.604614,1647.286255 405.602936,1643.686523 
	C423.766602,1637.741577 435.030701,1624.707886 439.153442,1605.991211 
	C442.402496,1591.241089 442.707214,1576.306641 441.016571,1561.276611 
	C438.367950,1537.730347 425.923248,1521.003906 405.136353,1510.656616 
	C394.770782,1505.496948 383.879211,1500.958984 372.745453,1497.870361 
	C351.289215,1491.917969 329.438873,1487.401855 307.858521,1481.874146 
	C297.263855,1479.160400 286.585297,1476.285645 276.533081,1472.078003 
	C266.231720,1467.766235 263.703308,1460.622437 265.647278,1448.018311 
	C267.000153,1439.246704 271.226227,1435.403198 282.258820,1433.901245 
	C301.825806,1431.237305 321.459412,1431.199219 341.036713,1433.732178 
	C355.131439,1435.555908 360.638306,1441.583252 362.018463,1455.887939 
	C362.552643,1461.424316 362.880829,1466.980347 363.338074,1472.989868 
	C388.709381,1472.989868 413.292511,1472.989868 439.376617,1471.940552 
M779.833923,1377.206421 
	C768.508850,1377.204590 757.183655,1377.165771 745.858765,1377.211304 
	C734.728027,1377.256104 723.578125,1376.999268 712.611145,1377.382812 
	C712.341492,1379.856323 712.139587,1380.841187 712.140259,1381.825806 
	C712.178772,1438.451660 711.887512,1495.081421 712.526306,1551.700684 
	C712.690369,1566.234741 714.878723,1580.918457 717.739075,1595.213013 
	C723.469177,1623.848999 741.263428,1641.862061 769.785645,1647.957642 
	C811.980530,1656.974976 854.437988,1656.958618 896.630676,1647.948242 
	C924.699341,1641.954224 942.612549,1624.377197 948.393311,1596.141357 
	C951.445984,1581.231201 953.561340,1565.866455 953.744873,1550.678589 
	C954.412842,1495.392456 954.093445,1440.094482 954.115234,1384.800903 
	C954.116089,1382.545776 953.802185,1380.290649 953.622986,1377.873779 
	C929.418762,1377.873779 905.639954,1377.873779 881.285278,1377.873779 
	C881.285278,1382.164551 881.291138,1385.786499 881.284424,1389.408569 
	C881.186462,1442.369263 881.195190,1495.330566 880.878479,1548.290039 
	C880.827026,1556.890747 879.742188,1565.547119 878.405273,1574.063232 
	C876.560059,1585.817017 868.731201,1592.736938 857.387939,1593.408081 
	C841.161865,1594.367676 824.785034,1594.386963 808.567749,1593.337769 
	C797.183899,1592.601318 789.660889,1585.346436 787.847717,1573.649170 
	C786.679749,1566.114502 785.733704,1558.456787 785.696533,1550.849243 
	C785.432739,1496.889526 785.431885,1442.928711 785.337036,1388.968140 
	C785.331726,1385.974487 785.547546,1382.924683 785.021362,1380.016602 
	C784.823792,1378.924438 782.805359,1378.161743 779.833923,1377.206421 
M1437.269287,1407.680664 
	C1449.546997,1419.890503 1462.271851,1431.687378 1474.008057,1444.397217 
	C1497.488525,1469.825928 1512.622437,1499.923340 1521.564087,1533.233276 
	C1522.156616,1535.440430 1524.020996,1537.974487 1519.356812,1539.873291 
	C1519.612549,1536.221436 1519.273560,1532.887329 1520.145508,1529.907349 
	C1526.891479,1506.854126 1535.462646,1484.667114 1549.262085,1464.656372 
	C1572.643188,1430.750610 1602.521362,1403.380249 1634.840698,1378.468262 
	C1675.054321,1347.471191 1718.234253,1321.138916 1763.428589,1298.068237 
	C1771.715942,1293.837646 1780.018677,1289.637207 1789.615356,1284.761841 
	C1763.484009,1267.751099 1738.200928,1251.292358 1713.163330,1234.993408 
	C1711.229370,1235.774414 1709.947388,1236.165527 1708.783569,1236.780396 
	C1645.996704,1269.953979 1597.683594,1317.713135 1564.431763,1380.510132 
	C1542.060425,1422.759155 1528.780029,1467.891968 1522.472168,1515.178589 
	C1522.222290,1517.052002 1521.373657,1518.845581 1520.804077,1520.676392 
	C1500.854736,1391.448364 1437.105591,1294.247437 1319.389771,1234.540649 
	C1292.543823,1251.599609 1265.917603,1267.443237 1239.454956,1284.694214 
	C1260.347412,1295.266357 1280.135498,1304.810669 1299.490112,1315.165649 
	C1348.074219,1341.158936 1394.293335,1370.753906 1437.269287,1407.680664 
M1948.978516,1597.372559 
	C1929.321411,1597.372559 1909.664062,1597.401611 1890.007202,1597.346313 
	C1886.354736,1597.336060 1882.659424,1597.279053 1879.059204,1596.740967 
	C1863.696899,1594.444458 1853.786255,1585.735107 1849.388794,1570.835571 
	C1848.566528,1568.049683 1848.026245,1565.180420 1847.336304,1562.266602 
	C1832.130371,1562.266602 1817.261230,1562.266602 1801.960815,1562.266602 
	C1801.216675,1571.091187 1802.861206,1579.111938 1805.446533,1587.012573 
	C1816.290405,1620.150879 1846.103394,1642.985840 1881.099609,1643.751709 
	C1910.069092,1644.385742 1939.063843,1643.945435 1968.046509,1643.806274 
	C1972.334473,1643.785645 1976.654541,1643.001099 1980.897461,1642.228394 
	C2017.865967,1635.496216 2049.878418,1601.479736 2047.143677,1557.099976 
	C2044.482910,1513.917969 2010.594971,1481.054077 1968.812134,1479.833862 
	C1953.832275,1479.396362 1938.830933,1479.672729 1923.839478,1479.652954 
	C1907.181152,1479.630981 1890.518188,1479.885254 1873.865723,1479.570801 
	C1857.636475,1479.264648 1847.506592,1469.216797 1847.723999,1454.365356 
	C1847.933960,1440.023804 1858.099731,1430.586914 1873.857544,1430.207642 
	C1878.852173,1430.087402 1883.852051,1430.183838 1888.849609,1430.184082 
	C1917.168823,1430.185425 1945.488525,1430.083496 1973.807007,1430.230713 
	C1989.687500,1430.313232 1997.592651,1437.179565 2000.551758,1452.704224 
	C2000.722046,1453.597534 2001.397339,1454.394531 2001.735107,1455.040161 
	C2016.912476,1455.040161 2031.778198,1455.040161 2046.378540,1455.040161 
	C2046.897339,1453.802368 2047.371704,1453.204468 2047.364136,1452.612793 
	C2046.882568,1415.787354 2017.498535,1384.794189 1980.445923,1383.876221 
	C1943.158813,1382.952637 1905.831177,1383.611694 1868.521484,1383.669556 
	C1832.094238,1383.725952 1792.006226,1418.996826 1803.335449,1471.083862 
	C1810.527832,1504.151611 1837.727051,1525.515259 1871.686157,1525.949463 
	C1896.003418,1526.260376 1920.327881,1526.014526 1944.649048,1526.023193 
	C1951.645386,1526.025635 1958.649170,1525.847778 1965.636841,1526.101440 
	C1984.936279,1526.801880 1999.909180,1541.210693 2001.084473,1559.995239 
	C2002.226685,1578.250366 1988.333008,1594.378662 1968.916626,1596.826172 
	C1963.004272,1597.571411 1956.953979,1597.221069 1948.978516,1597.372559 
M2579.980225,1461.025269 
	C2579.250488,1459.531250 2578.519531,1458.037720 2577.791504,1456.542725 
	C2553.631348,1406.936890 2500.238037,1377.507202 2445.484375,1384.315918 
	C2371.183350,1393.555664 2322.918213,1460.634155 2331.697754,1528.109375 
	C2338.758545,1582.375977 2368.757568,1619.925903 2420.388428,1637.013428 
	C2472.169189,1654.150391 2519.120361,1641.744751 2556.140137,1601.667847 
	C2593.492188,1561.231445 2600.238770,1513.734131 2579.980225,1461.025269 
M615.000610,1377.201050 
	C561.818176,1377.201050 508.635742,1377.201050 455.406738,1377.201050 
	C455.406738,1398.826538 455.406738,1419.038940 455.406738,1440.335938 
	C483.050598,1440.335938 510.179291,1440.335938 537.957214,1440.335938 
	C537.957214,1455.365479 537.957153,1469.310913 537.957153,1483.256226 
	C537.957153,1497.251953 537.957153,1511.247803 537.957153,1525.243530 
	C537.957153,1538.906128 537.957153,1552.568604 537.957153,1566.231201 
	C537.957153,1580.226929 537.944824,1594.222778 537.960693,1608.218506 
	C537.976379,1622.056641 537.887329,1635.899780 538.020447,1649.561523 
	C563.361023,1649.561523 587.223999,1649.561523 612.193726,1649.561523 
	C612.193726,1579.606689 612.193726,1510.186279 612.193726,1439.643799 
	C640.732361,1439.643799 668.165588,1439.643799 695.402100,1439.643799 
	C695.402100,1418.328247 695.402100,1398.153809 695.402100,1377.201416 
	C668.891785,1377.201416 642.946228,1377.201416 615.000610,1377.201050 
M2131.682129,1595.000122 
	C2131.682129,1571.502686 2131.682129,1548.005127 2131.682129,1524.021484 
	C2136.286865,1524.021484 2139.575928,1524.021484 2142.864746,1524.021484 
	C2178.170898,1524.021240 2213.477051,1524.055420 2248.783203,1523.979126 
	C2253.423584,1523.968994 2258.152100,1523.865479 2262.688232,1523.005005 
	C2294.310547,1517.006470 2317.837402,1489.572388 2319.515381,1457.032837 
	C2321.095215,1426.401489 2300.067627,1395.610962 2270.476318,1386.918457 
	C2261.390625,1384.249512 2251.460693,1383.584106 2241.907471,1383.521729 
	C2192.614258,1383.200195 2143.317871,1383.364258 2094.022461,1383.393066 
	C2091.110840,1383.394653 2088.199219,1383.693115 2085.242188,1383.855835 
	C2085.242188,1470.722534 2085.242188,1556.875244 2085.242188,1643.396851 
	C2100.809814,1643.396851 2115.888428,1643.396851 2131.682129,1643.396851 
	C2131.682129,1627.522339 2131.682129,1612.261230 2131.682129,1595.000122 
M1465.127441,1557.811279 
	C1469.624878,1561.214600 1474.122314,1564.617920 1478.935303,1568.260132 
	C1490.583374,1559.605713 1501.992310,1551.128906 1513.616333,1542.492432 
	C1511.793213,1536.013550 1510.542603,1530.141357 1508.476318,1524.571777 
	C1505.591431,1516.795288 1502.576904,1508.997070 1498.779907,1501.640747 
	C1483.127563,1471.316528 1460.749390,1446.277954 1435.575073,1423.714233 
	C1376.286377,1370.574707 1308.396240,1330.786743 1236.835938,1296.810547 
	C1235.792358,1296.315063 1234.445557,1296.458740 1232.882324,1296.258179 
	C1227.686035,1320.042725 1222.594971,1343.345703 1217.500977,1366.662109 
	C1300.114624,1430.418945 1382.069336,1493.667236 1465.127441,1557.811279 
M1740.567383,1323.690430 
	C1733.958008,1327.552490 1727.294800,1331.325806 1720.747803,1335.290771 
	C1674.182495,1363.490723 1629.875244,1394.685791 1591.438843,1433.566162 
	C1571.200684,1454.038086 1553.303711,1476.326172 1540.582031,1502.341553 
	C1534.312256,1515.163208 1528.924683,1528.362671 1527.531250,1543.064331 
	C1538.506104,1551.576538 1549.211182,1559.879395 1560.112915,1568.334717 
	C1643.872559,1500.745117 1727.006958,1433.660034 1810.135620,1366.579468 
	C1805.055176,1342.596191 1800.130493,1319.348267 1794.898438,1294.650024 
	C1776.354614,1304.531860 1759.090454,1313.731689 1740.567383,1323.690430 
M2738.710449,1644.183838 
	C2741.576416,1643.991577 2744.442383,1643.799316 2747.849609,1643.570679 
	C2747.849609,1607.577637 2747.822266,1572.296753 2747.857178,1537.015991 
	C2747.892334,1501.531006 2747.698730,1466.041748 2747.989014,1429.792480 
	C2784.246582,1429.792480 2819.095947,1429.792480 2853.934814,1429.792480 
	C2853.934814,1414.171753 2853.934814,1399.345215 2853.934814,1384.394897 
	C2767.262695,1384.394897 2681.130615,1384.394897 2594.782715,1384.394897 
	C2594.782715,1399.793701 2594.782715,1414.608154 2594.782715,1430.425049 
	C2630.458740,1430.425049 2665.600830,1430.425049 2701.773438,1430.425049 
	C2701.773438,1502.204834 2701.773438,1572.980713 2701.773438,1644.183838 
	C2714.135254,1644.183838 2725.448486,1644.183838 2738.710449,1644.183838 
M2518.989258,1671.857788 
	C2514.050049,1671.208130 2509.120605,1670.100830 2504.169678,1669.996460 
	C2490.184326,1669.701416 2476.190430,1669.811890 2462.199707,1669.774414 
	C2456.302246,1669.758545 2450.404785,1669.771729 2444.501953,1669.771729 
	C2444.501953,1701.616577 2444.501953,1732.446899 2444.501953,1763.537109 
	C2466.630615,1763.537109 2488.223145,1764.080078 2509.770996,1763.330200 
	C2522.363525,1762.891846 2533.800049,1758.282349 2542.018799,1747.745117 
	C2560.436035,1724.133423 2552.501465,1679.437134 2518.989258,1671.857788 
M2270.851318,1682.217285 
	C2267.864258,1679.566040 2264.659424,1677.119263 2261.939697,1674.217285 
	C2257.524414,1669.505493 2252.580322,1668.529785 2247.151855,1670.702881 
	C2247.151855,1701.884277 2247.151855,1732.671875 2247.151855,1763.354980 
	C2252.242432,1763.354980 2256.690918,1763.354980 2261.547363,1763.354980 
	C2261.547363,1739.034180 2261.547363,1715.424316 2261.547363,1691.711060 
	C2262.642334,1691.882812 2263.041992,1691.821533 2263.229248,1691.992554 
	C2288.047852,1714.654175 2312.901855,1737.277588 2337.603760,1760.065796 
	C2341.679199,1763.825439 2345.655029,1765.376343 2350.416016,1763.109253 
	C2350.416016,1731.779785 2350.416016,1701.014404 2350.416016,1670.194092 
	C2345.488037,1670.194092 2341.246338,1670.194092 2336.403564,1670.194092 
	C2336.403564,1693.827271 2336.403564,1717.050659 2336.403564,1740.997192 
	C2314.368408,1721.250488 2293.127930,1702.215942 2270.851318,1682.217285 
M1542.780518,1580.696533 
	C1522.960205,1580.696533 1503.140015,1580.696533 1483.034180,1580.696533 
	C1483.034180,1598.539307 1483.034180,1615.004517 1483.034180,1631.890503 
	C1508.297241,1631.890503 1533.099365,1631.890503 1558.199707,1631.890503 
	C1558.199707,1614.778198 1558.199707,1598.054565 1558.199707,1580.696655 
	C1553.255493,1580.696655 1548.974609,1580.696655 1542.780518,1580.696533 
M2814.709473,1705.988647 
	C2807.959229,1693.869019 2801.208984,1681.749512 2794.702637,1670.068237 
	C2788.376953,1670.068237 2783.102539,1670.068237 2777.408447,1670.068237 
	C2760.651611,1701.114258 2743.304688,1731.773438 2726.492188,1763.851318 
	C2732.530273,1763.851318 2736.814941,1763.851318 2741.641357,1763.851318 
	C2744.698730,1758.089722 2748.037354,1752.374023 2750.801514,1746.392944 
	C2752.718994,1742.243408 2755.175293,1740.479980 2759.958984,1740.562988 
	C2776.923096,1740.857666 2793.898926,1740.863037 2810.863037,1740.564453 
	C2815.988281,1740.474243 2818.718506,1742.367065 2820.766602,1746.874634 
	C2823.473633,1752.831665 2826.818604,1758.498657 2829.555664,1763.660645 
	C2835.628418,1763.660645 2840.520020,1763.660645 2846.710205,1763.660645 
	C2835.996582,1744.278198 2825.754150,1725.748413 2814.709473,1705.988647 
M2651.304932,1670.776855 
	C2646.183594,1669.153320 2641.112793,1669.415039 2636.423828,1670.396729 
	C2636.423828,1701.984253 2636.423828,1732.781006 2636.423828,1763.625610 
	C2641.641846,1763.625610 2646.196289,1763.625610 2651.666260,1763.625610 
	C2651.666260,1732.957642 2651.666260,1702.713501 2651.304932,1670.776855 
M2146.879883,1764.060669 
	C2149.060303,1763.814453 2151.240723,1763.568115 2153.292725,1763.336304 
	C2153.292725,1731.876953 2153.292725,1701.121582 2153.292725,1670.499756 
	C2147.910400,1670.499756 2143.142090,1670.499756 2138.563232,1670.499756 
	C2138.563232,1701.981567 2138.563232,1732.735840 2138.563232,1764.060303 
	C2141.118408,1764.060303 2143.070312,1764.060303 2146.879883,1764.060669 
M1544.516602,1564.544800 
	C1536.573242,1558.692749 1528.629883,1552.840576 1520.565674,1546.899414 
	C1513.910156,1551.601074 1507.861816,1555.680176 1502.030396,1560.048828 
	C1496.458984,1564.222900 1490.007080,1567.402832 1485.108032,1573.121826 
	C1508.756104,1573.121826 1531.384399,1573.121826 1555.685059,1573.121826 
	C1551.372559,1569.819458 1548.496216,1567.616821 1544.516602,1564.544800 
z"/>
<path fill="#04ff60" opacity="1.000000" stroke="none" 
	d="
M985.764282,1528.000000 
	C985.764221,1478.431641 985.764221,1429.863403 985.764221,1380.779541 
	C988.299316,1380.498901 990.191223,1380.106201 992.083069,1380.106812 
	C1040.707031,1380.124512 1089.332397,1379.984619 1137.954102,1380.339844 
	C1155.600708,1380.468750 1173.122559,1382.363525 1190.242065,1387.317383 
	C1216.520996,1394.921997 1233.413696,1411.935791 1240.137451,1438.143677 
	C1243.835205,1452.556885 1246.533813,1467.466919 1247.480103,1482.293579 
	C1249.218506,1509.528931 1249.859131,1536.930786 1245.894897,1564.054688 
	C1244.080078,1576.472534 1241.292358,1588.953247 1237.161987,1600.782471 
	C1229.902466,1621.572388 1214.680176,1634.870239 1193.863159,1641.845581 
	C1177.595459,1647.296509 1160.720093,1649.576904 1143.739868,1649.725830 
	C1092.455322,1650.175659 1041.165283,1650.010010 989.877441,1650.060303 
	C988.927734,1650.061279 987.977722,1649.765137 985.764282,1649.397949 
	C985.764282,1609.316162 985.764282,1569.158081 985.764282,1528.000000 
M1126.612183,1442.265625 
	C1104.125732,1442.265625 1081.639404,1442.265625 1058.941406,1442.265625 
	C1058.941406,1491.337524 1058.941406,1539.147827 1058.941406,1587.550171 
	C1061.587646,1587.752808 1063.818604,1588.073120 1066.049316,1588.071289 
	C1086.359375,1588.053833 1106.670044,1588.056274 1126.978882,1587.865356 
	C1131.609741,1587.821777 1136.270264,1587.288208 1140.854614,1586.577271 
	C1160.241699,1583.570801 1167.653198,1576.706665 1170.173340,1557.209961 
	C1173.813110,1529.050171 1173.475220,1500.777466 1170.187256,1472.567749 
	C1169.843750,1469.621094 1168.986084,1466.713013 1168.156128,1463.848145 
	C1164.958862,1452.814331 1157.317383,1446.513062 1146.320679,1444.377075 
	C1140.467529,1443.240356 1134.446899,1442.966675 1126.612183,1442.265625 
z"/>
<path fill="#FF0404" opacity="1.000000" stroke="none" 
	d="
M438.626099,1472.465210 
	C413.292511,1472.989868 388.709381,1472.989868 363.338074,1472.989868 
	C362.880829,1466.980347 362.552643,1461.424316 362.018463,1455.887939 
	C360.638306,1441.583252 355.131439,1435.555908 341.036713,1433.732178 
	C321.459412,1431.199219 301.825806,1431.237305 282.258820,1433.901245 
	C271.226227,1435.403198 267.000153,1439.246704 265.647278,1448.018311 
	C263.703308,1460.622437 266.231720,1467.766235 276.533081,1472.078003 
	C286.585297,1476.285645 297.263855,1479.160400 307.858521,1481.874146 
	C329.438873,1487.401855 351.289215,1491.917969 372.745453,1497.870361 
	C383.879211,1500.958984 394.770782,1505.496948 405.136353,1510.656616 
	C425.923248,1521.003906 438.367950,1537.730347 441.016571,1561.276611 
	C442.707214,1576.306641 442.402496,1591.241089 439.153442,1605.991211 
	C435.030701,1624.707886 423.766602,1637.741577 405.602936,1643.686523 
	C394.604614,1647.286255 383.115967,1650.242188 371.639374,1651.371826 
	C331.442017,1655.328491 291.147430,1656.094238 251.063919,1649.994263 
	C241.296661,1648.507935 231.594635,1645.576904 222.320038,1642.092651 
	C205.768387,1635.874512 194.895996,1623.726929 189.247726,1606.967896 
	C183.978302,1591.332886 183.000824,1575.228882 183.356750,1558.490601 
	C208.662628,1558.490601 233.213257,1558.490601 258.501984,1558.490601 
	C258.959961,1563.118652 259.367126,1567.687256 259.871643,1572.245117 
	C261.270905,1584.886841 265.407867,1589.895264 277.999725,1592.588989 
	C284.462524,1593.971680 291.184265,1594.665039 297.796906,1594.720337 
	C312.777008,1594.845459 327.762146,1594.388306 342.744904,1594.146484 
	C344.074799,1594.125000 345.408234,1593.997803 346.729858,1593.836548 
	C357.943390,1592.469360 362.523376,1589.300415 364.094238,1581.854492 
	C366.608643,1569.936279 364.310608,1561.436523 355.040894,1556.658081 
	C346.271637,1552.137695 336.731598,1548.692993 327.155548,1546.238281 
	C301.712494,1539.716309 275.955292,1534.408813 250.556976,1527.728760 
	C240.359268,1525.046753 230.477966,1520.639648 220.971603,1515.962646 
	C202.707169,1506.977051 191.696289,1492.283813 189.127029,1471.776001 
	C186.954315,1454.433350 187.499451,1437.215454 191.898987,1420.227783 
	C196.495026,1402.481567 207.602341,1390.617676 224.545288,1383.835571 
	C239.597641,1377.810181 255.427383,1375.465088 271.360992,1374.549561 
	C302.634094,1372.752563 333.985443,1371.858276 365.149780,1376.028931 
	C375.635406,1377.432129 386.150177,1379.817261 396.180756,1383.164551 
	C415.453308,1389.595703 428.239136,1403.016846 433.983124,1422.613770 
	C438.696808,1438.695679 440.735046,1455.153442 438.626099,1472.465210 
z"/>
<path fill="#04ff60" opacity="1.000000" stroke="none" 
	d="
M780.725464,1377.227661 
	C782.805359,1378.161743 784.823792,1378.924438 785.021362,1380.016602 
	C785.547546,1382.924683 785.331726,1385.974487 785.337036,1388.968140 
	C785.431885,1442.928711 785.432739,1496.889526 785.696533,1550.849243 
	C785.733704,1558.456787 786.679749,1566.114502 787.847717,1573.649170 
	C789.660889,1585.346436 797.183899,1592.601318 808.567749,1593.337769 
	C824.785034,1594.386963 841.161865,1594.367676 857.387939,1593.408081 
	C868.731201,1592.736938 876.560059,1585.817017 878.405273,1574.063232 
	C879.742188,1565.547119 880.827026,1556.890747 880.878479,1548.290039 
	C881.195190,1495.330566 881.186462,1442.369263 881.284424,1389.408569 
	C881.291138,1385.786499 881.285278,1382.164551 881.285278,1377.873779 
	C905.639954,1377.873779 929.418762,1377.873779 953.622986,1377.873779 
	C953.802185,1380.290649 954.116089,1382.545776 954.115234,1384.800903 
	C954.093445,1440.094482 954.412842,1495.392456 953.744873,1550.678589 
	C953.561340,1565.866455 951.445984,1581.231201 948.393311,1596.141357 
	C942.612549,1624.377197 924.699341,1641.954224 896.630676,1647.948242 
	C854.437988,1656.958618 811.980530,1656.974976 769.785645,1647.957642 
	C741.263428,1641.862061 723.469177,1623.848999 717.739075,1595.213013 
	C714.878723,1580.918457 712.690369,1566.234741 712.526306,1551.700684 
	C711.887512,1495.081421 712.178772,1438.451660 712.140259,1381.825806 
	C712.139587,1380.841187 712.341492,1379.856323 712.611145,1377.382812 
	C723.578125,1376.999268 734.728027,1377.256104 745.858765,1377.211304 
	C757.183655,1377.165771 768.508850,1377.204590 780.725464,1377.227661 
z"/>
<path fill="#FF0404" opacity="1.000000" stroke="none" 
	d="
M1436.741943,1407.205200 
	C1394.293335,1370.753906 1348.074219,1341.158936 1299.490112,1315.165649 
	C1280.135498,1304.810669 1260.347412,1295.266357 1239.454956,1284.694214 
	C1265.917603,1267.443237 1292.543823,1251.599609 1319.389771,1234.540649 
	C1437.105591,1294.247437 1500.854736,1391.448364 1520.804077,1520.676392 
	C1521.373657,1518.845581 1522.222290,1517.052002 1522.472168,1515.178589 
	C1528.780029,1467.891968 1542.060425,1422.759155 1564.431763,1380.510132 
	C1597.683594,1317.713135 1645.996704,1269.953979 1708.783569,1236.780396 
	C1709.947388,1236.165527 1711.229370,1235.774414 1713.163330,1234.993408 
	C1738.200928,1251.292358 1763.484009,1267.751099 1789.615356,1284.761841 
	C1780.018677,1289.637207 1771.715942,1293.837646 1763.428589,1298.068237 
	C1718.234253,1321.138916 1675.054321,1347.471191 1634.840698,1378.468262 
	C1602.521362,1403.380249 1572.643188,1430.750610 1549.262085,1464.656372 
	C1535.462646,1484.667114 1526.891479,1506.854126 1520.145508,1529.907349 
	C1519.273560,1532.887329 1519.612549,1536.221436 1519.356812,1539.873291 
	C1524.020996,1537.974487 1522.156616,1535.440430 1521.564087,1533.233276 
	C1512.622437,1499.923340 1497.488525,1469.825928 1474.008057,1444.397217 
	C1462.271851,1431.687378 1449.546997,1419.890503 1436.741943,1407.205200 
z"/>
<path fill="#030303" opacity="1.000000" stroke="none" 
	d="
M1949.972656,1597.372559 
	C1956.953979,1597.221069 1963.004272,1597.571411 1968.916626,1596.826172 
	C1988.333008,1594.378662 2002.226685,1578.250366 2001.084473,1559.995239 
	C1999.909180,1541.210693 1984.936279,1526.801880 1965.636841,1526.101440 
	C1958.649170,1525.847778 1951.645386,1526.025635 1944.649048,1526.023193 
	C1920.327881,1526.014526 1896.003418,1526.260376 1871.686157,1525.949463 
	C1837.727051,1525.515259 1810.527832,1504.151611 1803.335449,1471.083862 
	C1792.006226,1418.996826 1832.094238,1383.725952 1868.521484,1383.669556 
	C1905.831177,1383.611694 1943.158813,1382.952637 1980.445923,1383.876221 
	C2017.498535,1384.794189 2046.882568,1415.787354 2047.364136,1452.612793 
	C2047.371704,1453.204468 2046.897339,1453.802368 2046.378540,1455.040161 
	C2031.778198,1455.040161 2016.912476,1455.040161 2001.735107,1455.040161 
	C2001.397339,1454.394531 2000.722046,1453.597534 2000.551758,1452.704224 
	C1997.592651,1437.179565 1989.687500,1430.313232 1973.807007,1430.230713 
	C1945.488525,1430.083496 1917.168823,1430.185425 1888.849609,1430.184082 
	C1883.852051,1430.183838 1878.852173,1430.087402 1873.857544,1430.207642 
	C1858.099731,1430.586914 1847.933960,1440.023804 1847.723999,1454.365356 
	C1847.506592,1469.216797 1857.636475,1479.264648 1873.865723,1479.570801 
	C1890.518188,1479.885254 1907.181152,1479.630981 1923.839478,1479.652954 
	C1938.830933,1479.672729 1953.832275,1479.396362 1968.812134,1479.833862 
	C2010.594971,1481.054077 2044.482910,1513.917969 2047.143677,1557.099976 
	C2049.878418,1601.479736 2017.865967,1635.496216 1980.897461,1642.228394 
	C1976.654541,1643.001099 1972.334473,1643.785645 1968.046509,1643.806274 
	C1939.063843,1643.945435 1910.069092,1644.385742 1881.099609,1643.751709 
	C1846.103394,1642.985840 1816.290405,1620.150879 1805.446533,1587.012573 
	C1802.861206,1579.111938 1801.216675,1571.091187 1801.960815,1562.266602 
	C1817.261230,1562.266602 1832.130371,1562.266602 1847.336304,1562.266602 
	C1848.026245,1565.180420 1848.566528,1568.049683 1849.388794,1570.835571 
	C1853.786255,1585.735107 1863.696899,1594.444458 1879.059204,1596.740967 
	C1882.659424,1597.279053 1886.354736,1597.336060 1890.007202,1597.346313 
	C1909.664062,1597.401611 1929.321411,1597.372559 1949.972656,1597.372559 
z"/>
<path fill="#030303" opacity="1.000000" stroke="none" 
	d="
M2580.263672,1461.733521 
	C2600.238770,1513.734131 2593.492188,1561.231445 2556.140137,1601.667847 
	C2519.120361,1641.744751 2472.169189,1654.150391 2420.388428,1637.013428 
	C2368.757568,1619.925903 2338.758545,1582.375977 2331.697754,1528.109375 
	C2322.918213,1460.634155 2371.183350,1393.555664 2445.484375,1384.315918 
	C2500.238037,1377.507202 2553.631348,1406.936890 2577.791504,1456.542725 
	C2578.519531,1458.037720 2579.250488,1459.531250 2580.263672,1461.733521 
M2538.906738,1543.610840 
	C2544.569092,1529.649414 2545.708496,1515.077148 2543.454834,1500.414917 
	C2537.843262,1463.908813 2508.615723,1435.414795 2471.141602,1430.626221 
	C2433.171631,1425.774292 2399.956787,1447.025757 2385.207031,1477.933105 
	C2369.816650,1510.183228 2377.038086,1549.437378 2403.336426,1574.286987 
	C2446.214600,1614.803589 2515.816895,1599.874878 2538.906738,1543.610840 
z"/>
<path fill="#04ff60" opacity="1.000000" stroke="none" 
	d="
M616.000610,1377.201172 
	C642.946228,1377.201416 668.891785,1377.201416 695.402100,1377.201416 
	C695.402100,1398.153809 695.402100,1418.328247 695.402100,1439.643799 
	C668.165588,1439.643799 640.732361,1439.643799 612.193726,1439.643799 
	C612.193726,1510.186279 612.193726,1579.606689 612.193726,1649.561523 
	C587.223999,1649.561523 563.361023,1649.561523 538.020447,1649.561523 
	C537.887329,1635.899780 537.976379,1622.056641 537.960693,1608.218506 
	C537.944824,1594.222778 537.957153,1580.226929 537.957153,1566.231201 
	C537.957153,1552.568604 537.957153,1538.906128 537.957153,1525.243530 
	C537.957153,1511.247803 537.957153,1497.251953 537.957153,1483.256226 
	C537.957153,1469.310913 537.957214,1455.365479 537.957214,1440.335938 
	C510.179291,1440.335938 483.050598,1440.335938 455.406738,1440.335938 
	C455.406738,1419.038940 455.406738,1398.826538 455.406738,1377.201050 
	C508.635742,1377.201050 561.818176,1377.201050 616.000610,1377.201172 
z"/>
<path fill="#030303" opacity="1.000000" stroke="none" 
	d="
M2131.682129,1596.000122 
	C2131.682129,1612.261230 2131.682129,1627.522339 2131.682129,1643.396851 
	C2115.888428,1643.396851 2100.809814,1643.396851 2085.242188,1643.396851 
	C2085.242188,1556.875244 2085.242188,1470.722534 2085.242188,1383.855835 
	C2088.199219,1383.693115 2091.110840,1383.394653 2094.022461,1383.393066 
	C2143.317871,1383.364258 2192.614258,1383.200195 2241.907471,1383.521729 
	C2251.460693,1383.584106 2261.390625,1384.249512 2270.476318,1386.918457 
	C2300.067627,1395.610962 2321.095215,1426.401489 2319.515381,1457.032837 
	C2317.837402,1489.572388 2294.310547,1517.006470 2262.688232,1523.005005 
	C2258.152100,1523.865479 2253.423584,1523.968994 2248.783203,1523.979126 
	C2213.477051,1524.055420 2178.170898,1524.021240 2142.864746,1524.021484 
	C2139.575928,1524.021484 2136.286865,1524.021484 2131.682129,1524.021484 
	C2131.682129,1548.005127 2131.682129,1571.502686 2131.682129,1596.000122 
M2250.012939,1478.119263 
	C2252.883789,1477.416138 2255.953857,1477.145996 2258.590332,1475.933350 
	C2268.939697,1471.173340 2274.529541,1461.240967 2272.962891,1451.043457 
	C2271.153076,1439.262085 2263.005371,1431.614380 2250.802734,1430.359863 
	C2248.496094,1430.122681 2246.154785,1430.177490 2243.829346,1430.176758 
	C2209.257080,1430.166016 2174.684814,1430.159424 2140.112549,1430.186035 
	C2137.548340,1430.187988 2134.984131,1430.449951 2132.199707,1430.603027 
	C2132.199707,1446.621582 2132.199707,1462.047852 2132.199707,1478.157227 
	C2171.220459,1478.157227 2209.711426,1478.157227 2250.012939,1478.119263 
z"/>
<path fill="#04ff60" opacity="1.000000" stroke="none" 
	d="
M1464.575684,1557.363281 
	C1382.069336,1493.667236 1300.114624,1430.418945 1217.500977,1366.662109 
	C1222.594971,1343.345703 1227.686035,1320.042725 1232.882324,1296.258179 
	C1234.445557,1296.458740 1235.792358,1296.315063 1236.835938,1296.810547 
	C1308.396240,1330.786743 1376.286377,1370.574707 1435.575073,1423.714233 
	C1460.749390,1446.277954 1483.127563,1471.316528 1498.779907,1501.640747 
	C1502.576904,1508.997070 1505.591431,1516.795288 1508.476318,1524.571777 
	C1510.542603,1530.141357 1511.793213,1536.013550 1513.616333,1542.492432 
	C1501.992310,1551.128906 1490.583374,1559.605713 1478.935303,1568.260132 
	C1474.122314,1564.617920 1469.624878,1561.214600 1464.575684,1557.363281 
z"/>
<path fill="#04ff60" opacity="1.000000" stroke="none" 
	d="
M1741.196777,1323.311035 
	C1759.090454,1313.731689 1776.354614,1304.531860 1794.898438,1294.650024 
	C1800.130493,1319.348267 1805.055176,1342.596191 1810.135620,1366.579468 
	C1727.006958,1433.660034 1643.872559,1500.745117 1560.112915,1568.334717 
	C1549.211182,1559.879395 1538.506104,1551.576538 1527.531250,1543.064331 
	C1528.924683,1528.362671 1534.312256,1515.163208 1540.582031,1502.341553 
	C1553.303711,1476.326172 1571.200684,1454.038086 1591.438843,1433.566162 
	C1629.875244,1394.685791 1674.182495,1363.490723 1720.747803,1335.290771 
	C1727.294800,1331.325806 1733.958008,1327.552490 1741.196777,1323.311035 
z"/>
<path fill="#030303" opacity="1.000000" stroke="none" 
	d="
M2737.736084,1644.183838 
	C2725.448486,1644.183838 2714.135254,1644.183838 2701.773438,1644.183838 
	C2701.773438,1572.980713 2701.773438,1502.204834 2701.773438,1430.425049 
	C2665.600830,1430.425049 2630.458740,1430.425049 2594.782715,1430.425049 
	C2594.782715,1414.608154 2594.782715,1399.793701 2594.782715,1384.394897 
	C2681.130615,1384.394897 2767.262695,1384.394897 2853.934814,1384.394897 
	C2853.934814,1399.345215 2853.934814,1414.171753 2853.934814,1429.792480 
	C2819.095947,1429.792480 2784.246582,1429.792480 2747.989014,1429.792480 
	C2747.698730,1466.041748 2747.892334,1501.531006 2747.857178,1537.015991 
	C2747.822266,1572.296753 2747.849609,1607.577637 2747.849609,1643.570679 
	C2744.442383,1643.799316 2741.576416,1643.991577 2737.736084,1644.183838 
z"/>
<path fill="#0B0B0B" opacity="1.000000" stroke="none" 
	d="
M2519.792969,1671.997192 
	C2552.501465,1679.437134 2560.436035,1724.133423 2542.018799,1747.745117 
	C2533.800049,1758.282349 2522.363525,1762.891846 2509.770996,1763.330200 
	C2488.223145,1764.080078 2466.630615,1763.537109 2444.501953,1763.537109 
	C2444.501953,1732.446899 2444.501953,1701.616577 2444.501953,1669.771729 
	C2450.404785,1669.771729 2456.302246,1669.758545 2462.199707,1669.774414 
	C2476.190430,1669.811890 2490.184326,1669.701416 2504.169678,1669.996460 
	C2509.120605,1670.100830 2514.050049,1671.208130 2519.792969,1671.997192 
M2459.873779,1705.047119 
	C2459.873779,1719.927246 2459.873779,1734.807373 2459.873779,1749.634033 
	C2476.977783,1749.634033 2493.252441,1750.664307 2509.333740,1749.342896 
	C2525.252197,1748.034790 2532.887695,1739.492554 2535.042969,1723.626465 
	C2535.745605,1718.451904 2535.313721,1713.002319 2534.618408,1707.782715 
	C2532.872070,1694.674927 2524.971191,1686.901123 2512.211914,1684.371948 
	C2495.160889,1680.992065 2477.942139,1682.636353 2459.873779,1682.484375 
	C2459.873779,1689.915405 2459.873779,1696.490479 2459.873779,1705.047119 
z"/>
<path fill="#0B0B0B" opacity="1.000000" stroke="none" 
	d="
M2271.369385,1682.699219 
	C2293.127930,1702.215942 2314.368408,1721.250488 2336.403564,1740.997192 
	C2336.403564,1717.050659 2336.403564,1693.827271 2336.403564,1670.194092 
	C2341.246338,1670.194092 2345.488037,1670.194092 2350.416016,1670.194092 
	C2350.416016,1701.014404 2350.416016,1731.779785 2350.416016,1763.109253 
	C2345.655029,1765.376343 2341.679199,1763.825439 2337.603760,1760.065796 
	C2312.901855,1737.277588 2288.047852,1714.654175 2263.229248,1691.992554 
	C2263.041992,1691.821533 2262.642334,1691.882812 2261.547363,1691.711060 
	C2261.547363,1715.424316 2261.547363,1739.034180 2261.547363,1763.354980 
	C2256.690918,1763.354980 2252.242432,1763.354980 2247.151855,1763.354980 
	C2247.151855,1732.671875 2247.151855,1701.884277 2247.151855,1670.702881 
	C2252.580322,1668.529785 2257.524414,1669.505493 2261.939697,1674.217285 
	C2264.659424,1677.119263 2267.864258,1679.566040 2271.369385,1682.699219 
z"/>
<path fill="#FF0404" opacity="1.000000" stroke="none" 
	d="
M1543.737061,1580.696533 
	C1548.974609,1580.696655 1553.255493,1580.696655 1558.199707,1580.696655 
	C1558.199707,1598.054565 1558.199707,1614.778198 1558.199707,1631.890503 
	C1533.099365,1631.890503 1508.297241,1631.890503 1483.034180,1631.890503 
	C1483.034180,1615.004517 1483.034180,1598.539307 1483.034180,1580.696533 
	C1503.140015,1580.696533 1522.960205,1580.696533 1543.737061,1580.696533 
z"/>
<path fill="#0B0B0B" opacity="1.000000" stroke="none" 
	d="
M2815.110596,1706.603516 
	C2825.754150,1725.748413 2835.996582,1744.278198 2846.710205,1763.660645 
	C2840.520020,1763.660645 2835.628418,1763.660645 2829.555664,1763.660645 
	C2826.818604,1758.498657 2823.473633,1752.831665 2820.766602,1746.874634 
	C2818.718506,1742.367065 2815.988281,1740.474243 2810.863037,1740.564453 
	C2793.898926,1740.863037 2776.923096,1740.857666 2759.958984,1740.562988 
	C2755.175293,1740.479980 2752.718994,1742.243408 2750.801514,1746.392944 
	C2748.037354,1752.374023 2744.698730,1758.089722 2741.641357,1763.851318 
	C2736.814941,1763.851318 2732.530273,1763.851318 2726.492188,1763.851318 
	C2743.304688,1731.773438 2760.651611,1701.114258 2777.408447,1670.068237 
	C2783.102539,1670.068237 2788.376953,1670.068237 2794.702637,1670.068237 
	C2801.208984,1681.749512 2807.959229,1693.869019 2815.110596,1706.603516 
M2778.803955,1693.736694 
	C2773.198486,1705.062012 2766.622070,1715.931641 2760.958740,1728.539307 
	C2778.323486,1728.515259 2793.937988,1728.621460 2810.871826,1728.461792 
	C2806.016846,1719.189941 2802.097900,1711.594727 2798.075195,1704.054810 
	C2794.153076,1696.704346 2790.125000,1689.410278 2785.588623,1681.070923 
	C2782.988525,1685.995850 2781.291504,1689.210327 2778.803955,1693.736694 
z"/>
<path fill="#0B0B0B" opacity="1.000000" stroke="none" 
	d="
M2651.485596,1671.623047 
	C2651.666260,1702.713501 2651.666260,1732.957642 2651.666260,1763.625610 
	C2646.196289,1763.625610 2641.641846,1763.625610 2636.423828,1763.625610 
	C2636.423828,1732.781006 2636.423828,1701.984253 2636.423828,1670.396729 
	C2641.112793,1669.415039 2646.183594,1669.153320 2651.485596,1671.623047 
z"/>
<path fill="#0B0B0B" opacity="1.000000" stroke="none" 
	d="
M2145.950928,1764.060547 
	C2143.070312,1764.060303 2141.118408,1764.060303 2138.563232,1764.060303 
	C2138.563232,1732.735840 2138.563232,1701.981567 2138.563232,1670.499756 
	C2143.142090,1670.499756 2147.910400,1670.499756 2153.292725,1670.499756 
	C2153.292725,1701.121582 2153.292725,1731.876953 2153.292725,1763.336304 
	C2151.240723,1763.568115 2149.060303,1763.814453 2145.950928,1764.060547 
z"/>
<path fill="#FF0404" opacity="1.000000" stroke="none" 
	d="
M1545.068115,1564.979492 
	C1548.496216,1567.616821 1551.372559,1569.819458 1555.685059,1573.121826 
	C1531.384399,1573.121826 1508.756104,1573.121826 1485.108032,1573.121826 
	C1490.007080,1567.402832 1496.458984,1564.222900 1502.030396,1560.048828 
	C1507.861816,1555.680176 1513.910156,1551.601074 1520.565674,1546.899414 
	C1528.629883,1552.840576 1536.573242,1558.692749 1545.068115,1564.979492 
z"/>
<path fill="#FDFBFB" opacity="1.000000" stroke="none" 
	d="
M1127.557007,1442.284546 
	C1134.446899,1442.966675 1140.467529,1443.240356 1146.320679,1444.377075 
	C1157.317383,1446.513062 1164.958862,1452.814331 1168.156128,1463.848145 
	C1168.986084,1466.713013 1169.843750,1469.621094 1170.187256,1472.567749 
	C1173.475220,1500.777466 1173.813110,1529.050171 1170.173340,1557.209961 
	C1167.653198,1576.706665 1160.241699,1583.570801 1140.854614,1586.577271 
	C1136.270264,1587.288208 1131.609741,1587.821777 1126.978882,1587.865356 
	C1106.670044,1588.056274 1086.359375,1588.053833 1066.049316,1588.071289 
	C1063.818604,1588.073120 1061.587646,1587.752808 1058.941406,1587.550171 
	C1058.941406,1539.147827 1058.941406,1491.337524 1058.941406,1442.265625 
	C1081.639404,1442.265625 1104.125732,1442.265625 1127.557007,1442.284546 
z"/>
<path fill="#FDFBFB" opacity="1.000000" stroke="none" 
	d="
M2538.606445,1544.328735 
	C2515.816895,1599.874878 2446.214600,1614.803589 2403.336426,1574.286987 
	C2377.038086,1549.437378 2369.816650,1510.183228 2385.207031,1477.933105 
	C2399.956787,1447.025757 2433.171631,1425.774292 2471.141602,1430.626221 
	C2508.615723,1435.414795 2537.843262,1463.908813 2543.454834,1500.414917 
	C2545.708496,1515.077148 2544.569092,1529.649414 2538.606445,1544.328735 
M2427.416504,1533.224365 
	C2429.145264,1535.656128 2430.654053,1538.285889 2432.638184,1540.487671 
	C2445.876709,1555.178833 2467.967529,1557.867554 2484.425537,1546.905884 
	C2501.113770,1535.791016 2507.028564,1513.706909 2498.126953,1495.748413 
	C2489.319580,1477.979858 2469.053711,1469.575806 2450.100098,1475.331909 
	C2428.213867,1481.978638 2414.439453,1508.493530 2427.416504,1533.224365 
z"/>
<path fill="#FDFBFB" opacity="1.000000" stroke="none" 
	d="
M2249.107666,1478.138184 
	C2209.711426,1478.157227 2171.220459,1478.157227 2132.199707,1478.157227 
	C2132.199707,1462.047852 2132.199707,1446.621582 2132.199707,1430.603027 
	C2134.984131,1430.449951 2137.548340,1430.187988 2140.112549,1430.186035 
	C2174.684814,1430.159424 2209.257080,1430.166016 2243.829346,1430.176758 
	C2246.154785,1430.177490 2248.496094,1430.122681 2250.802734,1430.359863 
	C2263.005371,1431.614380 2271.153076,1439.262085 2272.962891,1451.043457 
	C2274.529541,1461.240967 2268.939697,1471.173340 2258.590332,1475.933350 
	C2255.953857,1477.145996 2252.883789,1477.416138 2249.107666,1478.138184 
z"/>
<path fill="#FDFBFB" opacity="1.000000" stroke="none" 
	d="
M2459.873779,1704.056274 
	C2459.873779,1696.490479 2459.873779,1689.915405 2459.873779,1682.484375 
	C2477.942139,1682.636353 2495.160889,1680.992065 2512.211914,1684.371948 
	C2524.971191,1686.901123 2532.872070,1694.674927 2534.618408,1707.782715 
	C2535.313721,1713.002319 2535.745605,1718.451904 2535.042969,1723.626465 
	C2532.887695,1739.492554 2525.252197,1748.034790 2509.333740,1749.342896 
	C2493.252441,1750.664307 2476.977783,1749.634033 2459.873779,1749.634033 
	C2459.873779,1734.807373 2459.873779,1719.927246 2459.873779,1704.056274 
z"/>
<path fill="#FDFBFB" opacity="1.000000" stroke="none" 
	d="
M2779.199219,1693.080688 
	C2781.291504,1689.210327 2782.988525,1685.995850 2785.588623,1681.070923 
	C2790.125000,1689.410278 2794.153076,1696.704346 2798.075195,1704.054810 
	C2802.097900,1711.594727 2806.016846,1719.189941 2810.871826,1728.461792 
	C2793.937988,1728.621460 2778.323486,1728.515259 2760.958740,1728.539307 
	C2766.622070,1715.931641 2773.198486,1705.062012 2779.199219,1693.080688 
z"/>
<path fill="#FF0404" opacity="1.000000" stroke="none" 
	d="
M2427.008789,1532.578369 
	C2414.439453,1508.493530 2428.213867,1481.978638 2450.100098,1475.331909 
	C2469.053711,1469.575806 2489.319580,1477.979858 2498.126953,1495.748413 
	C2507.028564,1513.706909 2501.113770,1535.791016 2484.425537,1546.905884 
	C2467.967529,1557.867554 2445.876709,1555.178833 2432.638184,1540.487671 
	C2430.654053,1538.285889 2429.145264,1535.656128 2427.008789,1532.578369 
z"/>
</svg>